#!OML:ASF H:\ManfredETheater\Project 1\Capture day 1\Session 1\subject.ASF
:FULLY-SPECIFIED
:DEGREES
386
root 1.0975 17.6122 -4.08221 1.1661 7.92195 -6.41763
lowerback -4.94777 -0.200131 -8.83047
upperback -1.10203 0.221828 -1.64389
thorax 1.60799 0.0809774 3.25995
lowerneck -6.00369 -5.88365 -7.97679
upperneck 33.98 -12.1843 14.991
head 14.079 -4.72957 5.81169
rclavicle -2.14687e-014 -1.27222e-014
rhumerus -44.7634 -17.2674 -21.6131
rradius 44.5881
rwrist -2.74953
rhand -26.1631 -4.96504
rfingers 7.12502
rthumb 0.388201 -34.9444
lclavicle -2.14687e-014 -1.27222e-014
lhumerus -2.91347 4.07734 51.2341
lradius 120.553
lwrist 1.20025
lhand -37.1634 10.1628
lfingers 7.12502
lthumb -10.2323 39.894
rfemur -5.13186 -8.83118 19.596
rtibia 30.9887
rfoot -19.627 -14.8364
rtoes -0.382106
lfemur -12.6878 -5.08902 -2.01413
ltibia 37.9719
lfoot -20.5085 8.98317
ltoes -12.0336
387
root 1.13679 17.5917 -4.04723 0.813453 7.76405 -6.34004
lowerback -5.25525 -0.234948 -8.80936
upperback -1.17928 0.204023 -1.64597
thorax 1.70211 0.0707506 3.24573
lowerneck -5.91886 -5.84846 -8.02143
upperneck 34.0818 -12.1045 14.864
head 14.0839 -4.71674 5.78544
rclavicle -3.37934e-015 1.59028e-015
rhumerus -44.5316 -17.3115 -21.4371
rradius 44.495
rwrist -3.25175
rhand -25.841 -5.34424
rfingers 7.12502
rthumb 0.699278 -35.3228
lclavicle -3.37934e-015 1.59028e-015
lhumerus -3.0249 3.80366 51.3719
lradius 120.236
lwrist 0.585371
lhand -37.2241 9.69061
lfingers 7.12502
lthumb -10.2909 39.4188
rfemur -4.67495 -8.7735 19.281
rtibia 31.1541
rfoot -19.7721 -14.7648
rtoes -0.623427
lfemur -12.2622 -4.9537 -2.26426
ltibia 38.3006
lfoot -20.8488 8.94766
ltoes -11.9853
388
root 1.18004 17.5712 -4.01197 0.466995 7.58175 -6.21799
lowerback -5.56785 -0.274954 -8.78448
upperback -1.26007 0.179073 -1.63667
thorax 1.79611 0.0570815 3.24061
lowerneck -5.84979 -5.80964 -8.05865
upperneck 34.1911 -12.0072 14.6958
head 14.0885 -4.69876 5.74246
rclavicle -5.85421e-014 -1.74931e-014
rhumerus -44.2661 -17.3392 -21.2353
rradius 44.5171
rwrist -3.73151
rhand -25.5134 -5.70397
rfingers 7.12502
rthumb 1.01572 -35.6813
lclavicle -5.85421e-014 -1.74931e-014
lhumerus -3.26889 3.51634 51.4856
lradius 119.893
lwrist 0.0478281
lhand -37.2216 9.30557
lfingers 7.12502
lthumb -10.2884 39.0339
rfemur -4.22662 -8.68376 18.9064
rtibia 31.3318
rfoot -19.9183 -14.7024
rtoes -0.865135
lfemur -11.8171 -4.80516 -2.57663
ltibia 38.6143
lfoot -21.1816 8.92166
ltoes -11.9475
389
root 1.22715 17.5508 -3.97646 0.122095 7.37078 -6.05135
lowerback -5.88101 -0.317878 -8.75382
upperback -1.34223 0.149445 -1.61687
thorax 1.88941 0.0411645 3.24265
lowerneck -5.79839 -5.76688 -8.08753
upperneck 34.308 -11.8925 14.4875
head 14.0937 -4.67532 5.68317
rclavicle 9.54166e-015 -2.8625e-014
rhumerus -43.9668 -17.3496 -21.0138
rradius 44.6487
rwrist -4.19685
rhand -25.1833 -6.03048
rfingers 7.12502
rthumb 1.33452 -36.006
lclavicle 9.54166e-015 -2.8625e-014
lhumerus -3.63735 3.21322 51.5719
lradius 119.522
lwrist -0.405901
lhand -37.1621 9.00635
lfingers 7.12502
lthumb -10.2311 38.7375
rfemur -3.78182 -8.55885 18.4718
rtibia 31.519
rfoot -20.0631 -14.6468
rtoes -1.10753
lfemur -11.3423 -4.64223 -2.95096
ltibia 38.9056
lfoot -21.5063 8.90451
ltoes -11.9195
390
root 1.278 17.5307 -3.94076 -0.225432 7.12697 -5.84035
lowerback -6.19003 -0.361591 -8.71532
upperback -1.42397 0.117345 -1.58731
thorax 1.98098 0.0240925 3.25007
lowerneck -5.76751 -5.71964 -8.10614
upperneck 34.4339 -11.7596 14.2392
head 14.1009 -4.64586 5.60734
rclavicle -1.55052e-014 -2.06736e-014
rhumerus -43.6316 -17.3423 -20.7786
rradius 44.8805
rwrist -4.65319
rhand -24.8589 -6.31425
rfingers 7.12502
rthumb 1.64783 -36.2876
lclavicle -1.55052e-014 -2.06736e-014
lhumerus -4.12241 2.89316 51.6291
lradius 119.122
lwrist -0.769186
lhand -37.0482 8.78337
lfingers 7.12502
lthumb -10.1212 38.5199
rfemur -3.33661 -8.3959 17.9777
rtibia 31.7128
rfoot -20.2046 -14.5953
rtoes -1.35018
lfemur -10.8284 -4.46341 -3.38647
ltibia 39.1677
lfoot -21.823 8.89588
ltoes -11.8959
391
root 1.33246 17.5109 -3.90498 -0.578494 6.84748 -5.58489
lowerback -6.49101 -0.404511 -8.66806
upperback -1.50427 0.0843617 -1.54879
thorax 2.06952 0.00668213 3.26163
lowerneck -5.75743 -5.6671 -8.11229
upperneck 34.5699 -11.6077 13.9507
head 14.1104 -4.60975 5.51479
rclavicle 1.13307e-014 2.8625e-014
rhumerus -43.2576 -17.3148 -20.5365
rradius 45.2017
rwrist -5.10686
rhand -24.5545 -6.55596
rfingers 7.12502
rthumb 1.94185 -36.5269
lclavicle 1.13307e-014 2.8625e-014
lhumerus -4.71711 2.5559 51.6571
lradius 118.695
lwrist -1.03668
lhand -36.881 8.62119
lfingers 7.12502
lthumb -9.95986 38.3656
rfemur -2.88916 -8.19339 17.4244
rtibia 31.9114
rfoot -20.3418 -14.5451
rtoes -1.59197
lfemur -10.2691 -4.26676 -3.88259
ltibia 39.3948
lfoot -22.1319 8.89571
ltoes -11.8703
392
root 1.39031 17.4914 -3.86924 -0.937559 6.53101 -5.28458
lowerback -6.78125 -0.445821 -8.61238
upperback -1.58311 0.0512344 -1.50211
thorax 2.15346 -0.01064 3.27673
lowerneck -5.76791 -5.60818 -8.10358
upperneck 34.7168 -11.4352 13.6218
head 14.1226 -4.56625 5.40526
rclavicle -1.05356e-014 -1.74931e-014
rhumerus -42.8415 -17.2661 -20.2934
rradius 45.5995
rwrist -5.56015
rhand -24.2842 -6.76047
rfingers 7.12502
rthumb 2.20287 -36.7288
lclavicle -1.05356e-014 -1.74931e-014
lhumerus -5.41495 2.20286 51.6575
lradius 118.24
lwrist -1.20624
lhand -36.6596 8.50037
lfingers 7.12502
lthumb -9.74621 38.2549
rfemur -2.44127 -7.95075 16.8128
rtibia 32.1142
rfoot -20.4743 -14.4938
rtoes -1.83103
lfemur -9.66266 -4.05032 -4.43874
ltibia 39.5829
lfoot -22.4326 8.90426
ltoes -11.836
393
root 1.45133 17.4722 -3.8337 -1.30048 6.17863 -4.93813
lowerback -7.06012 -0.485631 -8.55044
upperback -1.66105 0.0178295 -1.44829
thorax 2.23188 -0.0278959 3.29556
lowerneck -5.79845 -5.54197 -8.07802
upperneck 34.8759 -11.2411 13.2523
head 14.1382 -4.51475 5.27868
rclavicle -1.92821e-014 2.22639e-014
rhumerus -42.38 -17.1956 -20.0545
rradius 46.0612
rwrist -6.01363
rhand -24.0619 -6.93854
rfingers 7.12502
rthumb 2.41763 -36.9046
lclavicle -1.92821e-014 2.22639e-014
lhumerus -6.20988 1.8365 51.6327
lradius 117.759
lwrist -1.28045
lhand -36.3833 8.40235
lfingers 7.12502
lthumb -9.47965 38.1691
rfemur -1.99811 -7.66995 16.1428
rtibia 32.3216
rfoot -20.6028 -14.439
rtoes -2.06533
lfemur -9.01287 -3.81258 -5.05515
ltibia 39.7298
lfoot -22.7243 8.92194
ltoes -11.7876
394
root 1.51523 17.4535 -3.79858 -1.66274 5.79363 -4.5449
lowerback -7.32823 -0.524525 -8.48476
upperback -1.73942 -0.0164596 -1.38834
thorax 2.30382 -0.0453231 3.31839
lowerneck -5.84652 -5.46807 -8.03459
upperneck 35.0462 -11.0253 12.8443
head 14.1565 -4.4552 5.13578
rclavicle 1.35174e-014 -4.77083e-015
rhumerus -41.8721 -17.1052 -19.823
rradius 46.5748
rwrist -6.46438
rhand -23.8929 -7.0998
rfingers 7.12502
rthumb 2.58075 -37.0639
lclavicle 1.35174e-014 -4.77083e-015
lhumerus -7.0945 1.4589 51.5864
lradius 117.252
lwrist -1.26726
lhand -36.0509 8.31313
lfingers 7.12502
lthumb -9.15893 38.0942
rfemur -1.56827 -7.3547 15.4159
rtibia 32.5348
rfoot -20.7276 -14.379
rtoes -2.2934
lfemur -8.32893 -3.55243 -5.73091
ltibia 39.8358
lfoot -23.0049 8.9488
ltoes -11.7226
395
root 1.58169 17.4352 -3.76411 -2.01827 5.38097 -4.10452
lowerback -7.5871 -0.563509 -8.41842
upperback -1.81952 -0.0526164 -1.32333
thorax 2.36889 -0.063371 3.34577
lowerneck -5.91161 -5.38691 -7.97266
upperneck 35.2276 -10.7889 12.3996
head 14.1785 -4.38806 4.97719
rclavicle -1.33186e-014 -3.49861e-014
rhumerus -41.3181 -16.998 -19.6011
rradius 47.13
rwrist -6.91062
rhand -23.7766 -7.25185
rfingers 7.12502
rthumb 2.69308 -37.2146
lclavicle -1.33186e-014 -3.49861e-014
lhumerus -8.06046 1.07178 51.5221
lradius 116.72
lwrist -1.17908
lhand -35.6614 8.22632
lfingers 7.12502
lthumb -8.78311 38.0236
rfemur -1.1623 -7.01071 14.6336
rtibia 32.7553
rfoot -20.8492 -14.3127
rtoes -2.51487
lfemur -7.62425 -3.26932 -6.46472
ltibia 39.9033
lfoot -23.2718 8.98471
ltoes -11.6418
396
root 1.65034 17.4175 -3.73059 -2.36053 4.9466 -3.61788
lowerback -7.83825 -0.603638 -8.35371
upperback -1.90243 -0.091711 -1.25403
thorax 2.42694 -0.0825465 3.37808
lowerneck -5.9932 -5.29967 -7.89255
upperneck 35.4184 -10.5344 11.9214
head 14.2042 -4.31431 4.80385
rclavicle 5.1684e-015 4.77083e-015
rhumerus -40.7201 -16.8799 -19.3892
rradius 47.7178
rwrist -7.34858
rhand -23.7048 -7.39906
rfingers 7.12502
rthumb 2.76245 -37.3609
lclavicle 5.1684e-015 4.77083e-015
lhumerus -9.09761 0.675653 51.444
lradius 116.161
lwrist -1.03152
lhand -35.2133 8.14432
lfingers 7.12502
lthumb -8.35059 37.9593
rfemur -0.79132 -6.64555 13.7984
rtibia 32.9847
rfoot -20.9671 -14.2388
rtoes -2.73
lfemur -6.91471 -2.96328 -7.25375
ltibia 39.9365
lfoot -23.522 9.02902
ltoes -11.548
397
root 1.72082 17.4003 -3.69838 -2.6834 4.49705 -3.08711
lowerback -8.08222 -0.645906 -8.2923
upperback -1.98855 -0.134835 -1.18089
thorax 2.47799 -0.103388 3.41565
lowerneck -6.09204 -5.20815 -7.79405
upperneck 35.6158 -10.2646 11.4119
head 14.2338 -4.23515 4.61611
rclavicle -1.25234e-014 -3.65764e-014
rhumerus -40.0819 -16.757 -19.1875
rradius 48.3313
rwrist -7.77798
rhand -23.6652 -7.54317
rfingers 7.12502
rthumb 2.80066 -37.5045
lclavicle -1.25234e-014 -3.65764e-014
lhumerus -10.1943 0.269543 51.3566
lradius 115.574
lwrist -0.840074
lhand -34.7058 8.07469
lfingers 7.12502
lthumb -7.86079 37.9085
rfemur -0.465846 -6.26773 12.914
rtibia 33.2237
rfoot -21.0806 -14.1562
rtoes -2.94004
lfemur -6.21708 -2.63459 -8.09373
ltibia 39.9413
lfoot -23.7526 9.08056
ltoes -11.4466
398
root 1.79276 17.3836 -3.66786 -2.98201 4.03778 -2.51617
lowerback -8.31815 -0.690884 -8.23392
upperback -2.07771 -0.182795 -1.10378
thorax 2.52187 -0.126295 3.45837
lowerneck -6.20924 -5.11412 -7.67725
upperneck 35.816 -9.98236 10.8729
head 14.2667 -4.15173 4.41425
rclavicle -1.27222e-014 1.59028e-015
rhumerus -39.4076 -16.6365 -18.9952
rradius 48.9641
rwrist -8.19767
rhand -23.6458 -7.6832
rfingers 7.12502
rthumb 2.81947 -37.6443
lclavicle -1.27222e-014 1.59028e-015
lhumerus -11.3386 -0.148552 51.2645
lradius 114.96
lwrist -0.617575
lhand -34.1395 8.0277
lfingers 7.12502
lthumb -7.31424 37.8813
rfemur -0.19455 -5.88574 11.9852
rtibia 33.4726
rfoot -21.1883 -14.0633
rtoes -3.14585
lfemur -5.54664 -2.28391 -8.97845
ltibia 39.9241
lfoot -23.9616 9.13754
ltoes -11.341
399
root 1.86581 17.3675 -3.63945 -3.25322 3.57314 -1.91014
lowerback -8.54385 -0.738932 -8.17732
upperback -2.16897 -0.236321 -1.02192
thorax 2.55844 -0.151648 3.50626
lowerneck -6.34534 -5.01894 -7.54244
upperneck 36.0131 -9.68928 10.3062
head 14.3011 -4.06488 4.1985
rclavicle 2.0276e-014 1.27222e-014
rhumerus -38.7021 -16.5239 -18.8118
rradius 49.6122
rwrist -8.60931
rhand -23.6356 -7.81995
rfingers 7.12502
rthumb 2.82932 -37.7809
lclavicle 2.0276e-014 1.27222e-014
lhumerus -12.5196 -0.580823 51.1733
lradius 114.317
lwrist -0.37221
lhand -33.5187 8.01019
lfingers 7.12502
lthumb -6.71495 37.8837
rfemur 0.0164031 -5.50739 11.0176
rtibia 33.7304
rfoot -21.2886 -13.9584
rtoes -3.34795
lfemur -4.91602 -1.91202 -9.90062
ltibia 39.8911
lfoot -24.1479 9.19787
ltoes -11.2338
